<?xml version="1.0" encoding="UTF-8" standalone="no"?>
<!-- Created with Inkscape (http://www.inkscape.org/) -->

<svg
   version="1.1"
   id="svg1"
   width="1976.9689"
   height="406.31592"
   viewBox="0 0 1976.9689 406.31592"
   sodipodi:docname="Gemini_Generated_Image_9ntd4k9ntd4k9ntd_LE_upscale_prime.svg"
   inkscape:export-filename="..\..\Desktop\eantrackfinal.svg"
   inkscape:export-xdpi="96"
   inkscape:export-ydpi="96"
   inkscape:version="1.4.2 (f4327f4, 2025-05-13)"
   xmlns:inkscape="http://www.inkscape.org/namespaces/inkscape"
   xmlns:sodipodi="http://sodipodi.sourceforge.net/DTD/sodipodi-0.dtd"
   xmlns:xlink="http://www.w3.org/1999/xlink"
   xmlns="http://www.w3.org/2000/svg"
   xmlns:svg="http://www.w3.org/2000/svg"
   xmlns:rdf="http://www.w3.org/1999/02/22-rdf-syntax-ns#"
   xmlns:cc="http://creativecommons.org/ns#"
   xmlns:dc="http://purl.org/dc/elements/1.1/">
  <title
     id="title21">TESTE</title>
  <defs
     id="defs1">
    <linearGradient
       id="linearGradient20"
       inkscape:collect="always">
      <stop
         style="stop-color:#a4202b;stop-opacity:1;"
         offset="0"
         id="stop20" />
      <stop
         style="stop-color:#004161;stop-opacity:1"
         offset="1"
         id="stop21" />
    </linearGradient>
    <radialGradient
       inkscape:collect="always"
       xlink:href="#linearGradient20"
       id="radialGradient21"
       cx="783.87982"
       cy="638.92859"
       fx="783.87982"
       fy="638.92859"
       r="287.19119"
       gradientTransform="matrix(1.2690283,-1.2358737,1.092482,1.1217917,-1011.8626,1015.1897)"
       gradientUnits="userSpaceOnUse" />
  </defs>
  <sodipodi:namedview
     id="namedview1"
     pagecolor="#ffffff"
     bordercolor="#000000"
     borderopacity="0.25"
     inkscape:showpageshadow="2"
     inkscape:pageopacity="0.0"
     inkscape:pagecheckerboard="0"
     inkscape:deskcolor="#d1d1d1"
     inkscape:zoom="0.93"
     inkscape:cx="1000"
     inkscape:cy="214.51613"
     inkscape:window-width="2560"
     inkscape:window-height="1369"
     inkscape:window-x="-8"
     inkscape:window-y="-8"
     inkscape:window-maximized="1"
     inkscape:current-layer="g1"
     inkscape:export-bgcolor="#ffffff8d" />
  <g
     inkscape:groupmode="layer"
     inkscape:label="Image"
     id="g1"
     transform="translate(-232.39437,-554.57516)">
    <path
       style="fill:#004161;stroke-width:4.28598"
       d="m 312.57143,554.85714 c 0,289.71429 0,288.60691 0,288.60691 h 22.72269 V 554.90196 Z"
       id="path3" />
    <path
       style="fill:#004161;stroke-width:4.28598"
       d="m 361.76471,554.90196 h 53.92156 V 774.8366 l -53.92156,57.84314 z"
       id="path4" />
    <path
       style="fill:#004161;stroke-width:4.28598"
       d="M 441.83007,555.22876 V 749.6732 c 0,0 8.65798,-6.09074 25.81698,-15.03268 19.68807,-10.25989 27.12419,-10.45751 27.12419,-10.45751 V 554.90196 Z"
       id="path5"
       sodipodi:nodetypes="ccsccc" />
    <path
       style="fill:#004161;stroke-width:4.28598"
       d="M 521.56863,554.90196 V 719.60784 H 574.8366 V 555.22876 Z"
       id="path6" />
    <path
       style="fill:#004161;stroke-width:4.28598"
       d="m 601.63399,554.90196 v 164.70588 h 54.57516 v -10.45751 l 24.51133,-0.23364 c 0,0 3.36614,6.35674 6.06866,8.58988 2.67355,2.2092 6.07618,3.61448 9.47713,4.29418 3.93875,0.78717 8.28774,1.04961 12.04416,-0.37262 3.121,-1.18165 5.72282,-3.70895 7.70264,-6.39545 2.02823,-2.75219 3.30848,-6.11373 3.92157,-9.47712 0.61565,-3.37745 0.78498,-7.04602 -0.3268,-10.29412 -1.35127,-3.94777 -4.04373,-7.58909 -7.35294,-10.13072 -2.76925,-2.12691 -6.29919,-3.45706 -9.77796,-3.75817 -3.93534,-0.34063 -8.07293,0.56431 -11.62726,2.28758 -2.71108,1.31443 -4.98393,3.52699 -6.86275,5.88235 -1.4585,1.82843 -3.26798,6.20915 -3.26798,6.20915 h -24.183 V 554.57516 Z"
       id="path7"
       sodipodi:nodetypes="cccccaaaaaaaaaacccc" />
    <path
       style="fill:#a4202b;fill-opacity:1;stroke-width:4.28598"
       d="M 441.08911,960.89109 H 495.0495 V 803.46535 l -54.45544,54.95049 z"
       id="path8" />
    <path
       style="fill:#a4202b;fill-opacity:1;stroke-width:4.28598"
       d="m 600.49505,824.75248 v 135.64356 h 54.95049 V 824.25743 h 29.20793 v 16.83168 l 36.63366,-24.25743 -36.63366,-23.76237 v 16.33663 H 655.44554 V 796.53465 H 601.9802 v 12.87129 c 0,0 -17.09064,1.542 -30.19802,0 -4.99517,-0.58765 -5.38369,-9.17457 -9.90099,-11.38614 -5.34371,-2.61617 -12.34945,-3.32531 -17.82178,-0.9901 -5.59719,2.38849 -9.95477,8.08884 -11.88119,13.86139 -1.62273,4.86252 -1.3236,10.77224 0.9901,15.34653 2.43177,4.80772 7.26042,8.70603 12.37623,10.39604 5.18019,1.71128 11.43914,1.41352 16.33664,-0.9901 4.72416,-2.31855 5.1561,-11.39501 10.39604,-11.88118 11.92698,-1.10661 28.21782,0.9901 28.21782,0.9901 z"
       id="path9"
       sodipodi:nodetypes="cccccccccccccsaaaaaasc" />
    <path
       style="fill:#004161;fill-opacity:1;stroke-width:4.28598"
       d="m 863.36634,651.48515 v 208.91089 h 140.59406 v -36.63366 h -96.53466 v -49.50495 h 89.10891 v -37.12872 h -88.66948 v -47.99013 h 95.88013 v -37.45319 z"
       id="path10" />
    <path
       id="path11"
       style="opacity:1;fill:#004161;fill-opacity:1;stroke-width:4.28598"
       d="m 1094.3828,651.31055 -71.5371,208.98828 h 47.5664 l 14.9805,-46.06641 75.6562,-0.375 15.7305,47.19141 47.9395,-0.375 -73.0333,-209.36328 z m 28.0899,47.5664 28.0898,80.52344 h -54.3086 c 9.095,-26.72703 17.6846,-53.61431 26.2188,-80.52344 z" />
    <path
       style="opacity:1;fill:#004161;fill-opacity:1;stroke-width:4.28598"
       d="m 1245.6928,651.31086 0.3746,208.98877 h 44.1948 V 729.58801 l 89.1385,131.08615 h 38.9514 v -208.2397 h -43.8203 V 783.5206 l -88.764,-131.46067 -17.2285,0.37453 z"
       id="path13"
       sodipodi:nodetypes="cccccccccccc" />
    <path
       style="opacity:1;fill:#a11f2c;fill-opacity:1;stroke-width:4.28598"
       d="m 1443.8202,688.76404 62.1723,0.37454 v 171.53558 h 43.8202 V 689.13858 h 62.1723 v -37.45319 h -168.5393 z"
       id="path14" />
    <path
       style="opacity:1;fill:#a11f2c;fill-opacity:1;stroke-width:4.28598"
       d="m 1620.9738,704.11985 v 156.17978 h 44.5693 V 767.0412 c 0,0 4.5356,-13.46771 9.3633,-18.35206 3.9648,-4.01136 9.4904,-6.57597 14.9812,-7.86517 5.4706,-1.28446 16.854,0.37453 16.854,0.37453 l 8.9887,2.62172 1.4982,-39.32584 c 0,0 -9.4481,-1.96302 -14.2322,-1.87266 -5.951,0.1124 -12.1349,0.6453 -17.603,2.99626 -5.1612,2.21901 -10.0502,5.66528 -13.4832,10.11236 -4.0375,5.23019 -7.4906,18.35206 -7.4906,18.35206 l -0.7491,-31.08615 z"
       id="path15"
       sodipodi:nodetypes="ccccascccsssccc" />
    <path
       id="path16"
       style="opacity:1;fill:#a11f2c;fill-opacity:1;stroke-width:4.28598"
       d="m 1803.7715,701.48047 c -6.9447,-0.0866 -15.3477,0.68501 -27.0664,2.49609 -25.9492,4.01032 -40.3418,30.54787 -43.0137,36.01953 -1.1011,2.62533 -3.8613,9.15235 -3.8613,9.15235 l 40.9082,3.125 c 0,0 2.7764,-7.95156 5.6816,-10.79688 3.6307,-3.55586 8.6532,-5.82289 13.6367,-6.81836 6.7022,-1.33879 14.1132,-1.12615 20.4551,1.42188 4.1177,1.6544 7.787,4.81459 10.2266,8.52148 1.466,2.22758 2.3183,5.00556 2.2734,7.67188 -0.03,1.7965 -1.7051,5.11328 -1.7051,5.11328 0,0 -2.3287,4.16421 -4.2617,5.39648 -3.1183,1.98791 -7.1489,1.9401 -10.7949,2.5586 -7.2277,1.2261 -14.6269,1.17263 -21.875,2.27148 -9.5481,1.44755 -19.3311,2.38498 -28.4082,5.68164 -4.4611,1.6202 -8.8025,3.8426 -12.5,6.81836 -5.1772,4.16669 -9.7964,9.27224 -13.0684,15.05664 -2.1084,3.72736 -3.3363,7.98288 -3.9785,12.2168 -1.0368,6.83535 -1.2011,13.9864 0.2852,20.73828 1.449,6.58255 4.1872,13.07993 8.2383,18.4668 2.383,3.16879 5.8135,5.43708 9.0898,7.66992 3.2913,2.24301 6.7774,4.29653 10.5117,5.68164 4.9981,1.85387 10.3296,2.79468 15.625,3.4082 5.927,0.68669 11.9613,0.8777 17.8985,0.28516 5.3045,-0.5294 10.6663,-1.45333 15.625,-3.41016 4.3054,-1.69902 8.522,-3.97137 11.9316,-7.10156 3.9492,-3.62558 4.1908,-14.43398 9.375,-13.06836 6.5392,1.72256 2.1699,20.16992 2.1699,20.16992 h 38.7383 V 749.7168 c 0,0 -5.7541,-32.95139 -30.9648,-41.47852 -12.0739,-4.0838 -19.5974,-6.61354 -31.1719,-6.75781 z m -70.0801,38.51562 c 0.5556,-1.32462 0.6895,-1.65498 -0.168,0.34571 -0.01,0.0203 -0.017,0.0393 -0.025,0.0586 0.056,-0.11798 0.1197,-0.25333 0.1934,-0.4043 z m 89.6035,48.35547 c 0,0 0.7339,13.4135 -0.2832,18.75 -1.2654,6.63915 -3.3898,13.1585 -8.2383,17.33008 -8.1751,7.03385 -20.3646,11.35057 -30.9668,9.375 -5.9032,-1.09999 -11.9986,-5.49527 -14.205,-11.08008 -2.4656,-6.24075 -1.3078,-14.84723 3.125,-19.88476 6.7111,-7.62678 14.2049,-6.5348 29.2617,-8.52344 15.0569,-1.98863 21.3066,-5.9668 21.3066,-5.9668 z" />
    <path
       style="opacity:1;fill:#a51f2a;fill-opacity:1;stroke-width:4.28598"
       d="m 1994.8344,763.04636 41.457,-0.5298 c 0,0 4.2384,-35.89404 -37.351,-54.17219 -41.5894,-18.27814 -76.9536,6.09272 -79.0729,7.94702 -2.1192,1.85431 -30.4635,22.91391 -29.139,69.80133 1.3245,46.88741 33.1126,65.69536 33.1126,65.69536 0,0 44.2384,28.07947 88.8742,-0.39735 l 12.8476,-13.64239 c 0,0 7.947,-12.05298 9.404,-18.67549 1.4569,-6.62252 1.7218,-14.96689 1.7218,-14.96689 l -42.7814,-0.13245 c 0,0 -0.1725,31.67932 -37.1854,22.8808 -16.7099,-3.97218 -20.4811,-23.99759 -20.6291,-42.01987 -0.1419,-17.25781 2.245,-34.78655 15.6622,-43.27814 6.8742,-4.3506 18.085,-4.91196 26.3742,-0.38081 14.1852,7.75419 16.7052,21.87087 16.7052,21.87087 z"
       id="path18"
       sodipodi:nodetypes="ccssscccsccssssc" />
    <path
       style="opacity:1;fill:#a51f2a;fill-opacity:1;stroke-width:4.28598"
       d="m 2062.1723,652.05993 v 208.61423 h 43.4457 v -51.6854 l 11.0487,-11.04869 42.5093,63.10862 50.1873,-0.74906 -58.8015,-88.01499 56.5543,-68.16479 -51.3109,0.74906 -50.5618,60.29963 0.7491,-113.85768 z"
       id="path19" />
    <path
       style="opacity:1;fill:url(#radialGradient21);fill-opacity:1;stroke:none;stroke-width:6.0366;stroke-opacity:1"
       d="m 233.33143,844.71831 c -0.51434,-63.32746 -0.9356,-154.27817 -0.93612,-202.11268 l -9.4e-4,-86.97183 h 26.05633 26.05634 v 154.92958 154.92958 h 25.78286 c 43.17783,0 47.98119,-2.71519 103.09038,-58.27371 39.44623,-39.76784 50.9293,-49.59424 67.60564,-57.8521 18.96877,-9.39305 15.65884,-9.18243 144.67066,-9.20549 l 116.50165,-0.0208 0.39976,-14.7724 0.39976,-14.77241 32.10667,23.13369 c 17.65866,12.72354 31.92809,23.64928 31.70983,24.27944 -0.21826,0.63017 -14.66626,11.43448 -32.10667,24.00956 l -31.70983,22.86381 -0.39976,-14.76522 -0.39976,-14.76521 -109.4594,0.0461 c -60.20266,0.0253 -113.83194,0.60941 -119.17618,1.29791 -21.11495,2.7203 -40.81847,16.80096 -73.28797,52.37354 -43.56378,47.72712 -54.98068,56.95365 -82.17508,66.40953 -11.88296,4.13188 -13.28736,4.29327 -42.91875,4.9322 l -30.63381,0.66054 v 29.39362 29.39361 h -25.12022 -25.12021 z"
       id="path20" />
  </g>
  <metadata
     id="metadata21">
    <rdf:RDF>
      <cc:Work
         rdf:about="">
        <dc:title>TESTE</dc:title>
      </cc:Work>
    </rdf:RDF>
  </metadata>
</svg>
