<svg xmlns="http://www.w3.org/2000/svg" viewBox="0 0 18 18">
  <path
    fill="#4285F4"
    d="M17.64 9.2045c0-.6382-.0573-1.2518-.1636-1.8409H9v3.4818h4.8436c-.2086 1.125-.8427 2.0782-1.7959 2.715v2.2582h2.9086c1.7023-1.5682 2.6837-3.8818 2.6837-6.6225Z"
  />
  <path
    fill="#34A853"
    d="M9 18c2.43 0 4.4673-.8059 5.9564-2.1727l-2.9086-2.2582c-.8059.54-1.8368.8591-3.0478.8591-2.344 0-4.3281-1.5832-5.0359-3.7105H.9573v2.3318A8.999 8.999 0 0 0 9 18Z"
  />
  <path
    fill="#FBBC05"
    d="M3.9641 10.7177A5.407 5.407 0 0 1 3.6818 9c0-.5968.1023-1.1777.2823-1.7177V4.9504H.9573A9 9 0 0 0 0 9c0 1.45.3477 2.8227.9573 4.0495l3.0068-2.3318Z"
  />
  <path
    fill="#EA4335"
    d="M9 3.5714c1.3214 0 2.5077.4541 3.44 1.3459l2.5814-2.5814C13.4632.8918 11.4268 0 9 0A8.999 8.999 0 0 0 .9573 4.9504l3.0068 2.3319C4.6719 5.1545 6.656 3.5714 9 3.5714Z"
  />
</svg>
